<svg width="60" height="60" viewBox="0 0 60 60" fill="none" xmlns="http://www.w3.org/2000/svg">
<path fill-rule="evenodd" clip-rule="evenodd" d="M30.14 0C31.5517 0 32.5259 1.11099 33.4909 2.21146C34.0624 2.86331 34.6289 3.50922 34.9756 3.57193C35.3306 3.63647 36.0929 3.21396 36.8506 2.79373C38.1041 2.09839 39.3508 1.40762 40.6272 1.88187C41.9179 2.3616 42.4013 3.71201 42.8829 5.05783C43.1682 5.85434 43.4521 6.6481 43.7236 6.80695C43.9956 6.96579 44.8317 6.81976 45.6665 6.67419C47.0682 6.42929 48.468 6.18484 49.5073 7.05963C50.5411 7.9303 50.5347 9.35165 50.5283 10.773C50.5246 11.6121 50.5205 12.4512 50.7237 12.6915C50.9269 12.9323 51.7552 13.0714 52.584 13.2106C53.9907 13.4473 55.3997 13.6839 56.0891 14.8581C56.7766 16.0295 56.3023 17.3657 55.8263 18.7065C55.5405 19.5108 55.2539 20.3178 55.3694 20.6277C55.485 20.9367 56.2184 21.3625 56.9555 21.7905C58.2049 22.5156 59.4616 23.2448 59.7106 24.614C59.9556 25.9598 59.0644 27.079 58.1654 28.2088C57.6141 28.9018 57.0578 29.6008 57.0578 30C57.0578 30.3996 57.6141 31.0986 58.1654 31.7917C59.0644 32.921 59.9556 34.0402 59.7106 35.386C59.4616 36.7552 58.2049 37.4849 56.9555 38.21C56.2184 38.6375 55.485 39.0633 55.3694 39.3727C55.2539 39.6826 55.5405 40.4897 55.8263 41.2939C56.3023 42.6347 56.7766 43.9709 56.0891 45.1419C55.3997 46.3165 53.9907 46.5532 52.584 46.7894C51.7552 46.929 50.9269 47.0682 50.7237 47.3085C50.5205 47.5493 50.5246 48.3884 50.5283 49.2274C50.5347 50.6488 50.5411 52.0702 49.5073 52.9408C48.468 53.8156 47.0682 53.5712 45.6665 53.3263C44.8317 53.1807 43.9956 53.0347 43.7236 53.1935C43.4521 53.3524 43.1682 54.1461 42.8829 54.9426C42.4013 56.2885 41.9179 57.6389 40.6272 58.1186C39.3508 58.5928 38.1041 57.9016 36.8506 57.2067C36.0929 56.7865 35.3311 56.364 34.9756 56.4285C34.6289 56.4912 34.0624 57.1371 33.4909 57.7885C32.5259 58.889 31.5517 60 30.14 60C28.7287 60 27.7545 58.889 26.789 57.7885C26.218 57.1367 25.6515 56.4908 25.3043 56.4281C24.9493 56.3635 24.1875 56.786 23.4293 57.2063C22.1758 57.9016 20.9296 58.5924 19.6532 58.1181C18.362 57.6384 17.8791 56.288 17.397 54.9422C17.1122 54.1461 16.8278 53.3519 16.5563 53.1931C16.2848 53.0342 15.4486 53.1802 14.6134 53.3263C13.2118 53.5707 11.8119 53.8152 10.7726 52.9404C9.73878 52.0697 9.7452 50.6483 9.75163 49.227C9.75575 48.3879 9.75942 47.5488 9.55624 47.3085C9.35305 47.0677 8.52517 46.9286 7.69591 46.7894C6.28921 46.5532 4.8802 46.3161 4.19084 45.1419C3.50377 43.9705 3.97802 42.6343 4.45411 41.2935C4.73985 40.4892 5.02606 39.6822 4.91048 39.3723C4.79535 39.0633 4.06196 38.6375 3.32443 38.2095C2.0755 37.4844 0.818316 36.7552 0.569723 35.386C0.324799 34.0402 1.21552 32.9205 2.11449 31.7912C2.66625 31.0982 3.22261 30.3992 3.22261 29.9995C3.22261 29.6004 2.66625 28.9014 2.11449 28.2083C1.21552 27.0786 0.324799 25.9598 0.569723 24.6135C0.818316 23.2443 2.0755 22.5151 3.32443 21.79C4.06196 21.362 4.79535 20.9363 4.91048 20.6273C5.02606 20.3174 4.73985 19.5103 4.45411 18.7061C3.97802 17.3653 3.50331 16.0291 4.19084 14.8581C4.8802 13.6835 6.28921 13.4468 7.69591 13.2106C8.52517 13.071 9.35305 12.9318 9.55624 12.6915C9.75942 12.4507 9.75575 11.6116 9.75163 10.7726C9.7452 9.3512 9.73878 7.92938 10.7726 7.05963C11.8119 6.18484 13.2118 6.42883 14.6134 6.67374C15.4486 6.81931 16.2848 6.96533 16.5563 6.80649C16.8278 6.6481 17.1122 5.85388 17.397 5.05737C17.8786 3.71201 18.3625 2.36115 19.6532 1.88141C20.9296 1.40717 22.1758 2.09839 23.4293 2.79327C24.1875 3.2135 24.9493 3.63602 25.3043 3.57147C25.6515 3.50876 26.218 2.86285 26.789 2.21146C27.7545 1.11099 28.7287 0 30.14 0V0ZM44.6905 15.1378C44.0419 15.1378 43.5163 15.6624 43.5163 16.3097C43.5163 16.5981 43.6209 16.8622 43.7942 17.0663V17.0668L43.7938 17.0663L43.7975 17.0705C43.8213 17.0984 43.8465 17.1249 43.8727 17.1501C47.0305 20.5101 48.9643 25.0296 48.9643 30C48.9643 35.1883 46.8576 39.8849 43.4512 43.2848C40.0447 46.685 35.3384 48.7875 30.14 48.7875C27.9145 48.7875 25.7795 48.4021 23.7981 47.6944C23.7628 47.6797 23.7261 47.6669 23.6889 47.6555L23.6862 47.6541V47.6546C23.5784 47.6221 23.4637 47.6042 23.3454 47.6042C22.6973 47.6042 22.1712 48.1288 22.1712 48.7761C22.1712 49.3071 22.5253 49.7552 23.0101 49.8994C25.2378 50.6946 27.6384 51.1281 30.14 51.1281C35.9856 51.1281 41.278 48.7628 45.1088 44.9396C48.9399 41.1159 51.3094 35.8342 51.3094 30C51.3094 24.4171 49.1395 19.3405 45.5963 15.5635C45.3808 15.3035 45.0551 15.1378 44.6905 15.1378ZM41.1469 12.1632C40.4988 12.1632 39.9727 12.6878 39.9727 13.3351C39.9727 13.9819 40.4988 14.507 41.1469 14.507C41.7954 14.507 42.321 13.9819 42.321 13.3351C42.321 12.6878 41.7954 12.1632 41.1469 12.1632ZM37.3359 10.1244C35.0894 9.31412 32.6667 8.87192 30.14 8.87192C24.2943 8.87192 19.0023 11.2367 15.1711 15.0604C11.3404 18.8837 8.97053 24.1658 8.97053 30C8.97053 35.571 11.1313 40.638 14.6611 44.4127C14.8767 44.67 15.2005 44.8338 15.5628 44.8338C16.2114 44.8338 16.737 44.3092 16.737 43.662C16.737 43.3745 16.6334 43.1113 16.4609 42.9076V42.9066L16.4563 42.9016C16.4334 42.8746 16.4091 42.849 16.3838 42.8247C13.2402 39.467 11.3157 34.958 11.3157 30C11.3157 24.8117 13.4227 20.1146 16.8292 16.7152C20.2357 13.315 24.942 11.2125 30.14 11.2125C32.3865 11.2125 34.5408 11.6052 36.5383 12.3257H36.5387C36.68 12.3857 36.835 12.4187 36.9983 12.4187C37.6468 12.4187 38.1725 11.8941 38.1725 11.2468C38.1725 10.7167 37.8198 10.269 37.3359 10.1244ZM19.133 45.493C18.485 45.493 17.9589 46.0176 17.9589 46.6649C17.9589 47.3122 18.485 47.8368 19.133 47.8368C19.7816 47.8368 20.3072 47.3122 20.3072 46.6649C20.3072 46.0176 19.7816 45.493 19.133 45.493ZM23.3041 18.4827C21.9579 18.4827 20.7393 19.0269 19.8568 19.9077C18.9748 20.7884 18.429 22.0047 18.429 23.3482C18.429 24.6913 18.9748 25.9081 19.8568 26.7883C20.7393 27.6691 21.9579 28.2138 23.3041 28.2138C24.6503 28.2138 25.8689 27.6691 26.7514 26.7883C27.6334 25.9081 28.1792 24.6913 28.1792 23.3482C28.1792 22.0047 27.6334 20.7884 26.7514 19.9077C25.8689 19.0269 24.6503 18.4827 23.3041 18.4827ZM25.0933 21.5625C24.6356 21.1057 24.0031 20.8228 23.3041 20.8228C22.6056 20.8228 21.9726 21.1057 21.5149 21.5625C21.0571 22.0193 20.7741 22.6506 20.7741 23.3482C20.7741 24.0454 21.0571 24.6771 21.5149 25.134C21.9726 25.5904 22.6056 25.8733 23.3041 25.8733C24.0031 25.8733 24.6356 25.5908 25.0933 25.134C25.5511 24.6771 25.8341 24.0454 25.8341 23.3482C25.8341 22.6506 25.5511 22.0193 25.0933 21.5625ZM36.0007 19.0128L22.3285 39.7073C21.9744 40.2452 22.124 40.9676 22.6629 41.321C23.2018 41.6743 23.9256 41.5251 24.2797 40.9872L37.9518 20.2927C38.3059 19.7548 38.1564 19.0324 37.6175 18.679C37.0786 18.3257 36.3548 18.4749 36.0007 19.0128ZM36.9763 31.7862C35.6301 31.7862 34.411 32.3309 33.529 33.2112C32.647 34.0919 32.1012 35.3087 32.1012 36.6518C32.1012 37.9953 32.647 39.2116 33.529 40.0923C34.4115 40.9726 35.6301 41.5173 36.9763 41.5173C38.3224 41.5173 39.5411 40.9726 40.4231 40.0923C41.3056 39.2116 41.8514 37.9953 41.8514 36.6518C41.8514 35.3082 41.3056 34.0919 40.4231 33.2112C39.5411 32.3309 38.3224 31.7862 36.9763 31.7862ZM38.765 34.866C38.3078 34.4096 37.6748 34.1267 36.9763 34.1267C36.2773 34.1267 35.6448 34.4092 35.187 34.866C34.7293 35.3229 34.4459 35.9546 34.4459 36.6518C34.4459 37.3494 34.7293 37.9807 35.187 38.4375C35.6448 38.8943 36.2773 39.1768 36.9763 39.1768C37.6748 39.1768 38.3078 38.8943 38.765 38.4375C39.2232 37.9807 39.5062 37.3494 39.5062 36.6518C39.5062 35.9546 39.2232 35.3233 38.765 34.866ZM31.7324 3.74771C31.1183 3.04733 30.4986 2.34055 30.1404 2.34055C29.7817 2.34055 29.1621 3.04733 28.5479 3.74771C27.7072 4.70627 26.8734 5.65704 25.7166 5.8667C24.5425 6.07956 23.4151 5.45425 22.2937 4.83215C21.5121 4.39865 20.7347 3.9679 20.4687 4.06677C20.2063 4.16428 19.905 5.00565 19.605 5.84381C19.178 7.03629 18.7528 8.2251 17.7383 8.8179C16.7168 9.41528 15.4629 9.19647 14.2107 8.97766C13.3461 8.82706 12.482 8.67599 12.2848 8.84262C12.0802 9.01474 12.0839 9.88953 12.088 10.7639C12.094 12.0341 12.0995 13.3044 11.3427 14.2003C10.5882 15.0934 9.33516 15.304 8.08073 15.5145C7.21249 15.6606 6.34195 15.8066 6.20665 16.0378C6.0718 16.2671 6.36626 17.097 6.6621 17.9292C7.08773 19.1281 7.51474 20.3307 7.10012 21.4412C6.69099 22.5375 5.59709 23.1725 4.49722 23.811C3.71292 24.2661 2.92356 24.7243 2.86898 25.0255C2.81348 25.3308 3.37764 26.0394 3.94683 26.7549C4.75407 27.7689 5.56819 28.7915 5.56819 30C5.56819 31.209 4.75407 32.2311 3.94683 33.2455C3.37764 33.9606 2.81348 34.6692 2.86898 34.975C2.92356 35.2762 3.71292 35.7339 4.49722 36.1894C5.59709 36.8275 6.69099 37.4625 7.10012 38.5588C7.51474 39.6698 7.08773 40.8723 6.6621 42.0712C6.36626 42.9034 6.0718 43.7329 6.20665 43.9627C6.34195 44.1934 7.21203 44.3399 8.08073 44.4855C9.33562 44.6965 10.5882 44.9066 11.3427 45.8002C12.0995 46.6956 12.094 47.9659 12.088 49.2366C12.0839 50.1109 12.0802 50.9853 12.2848 51.1578C12.4825 51.324 13.3461 51.1734 14.2107 51.0223C15.4629 50.804 16.7168 50.5847 17.7383 51.1821C18.7528 51.7749 19.1785 52.9637 19.605 54.1562C19.905 54.9944 20.2063 55.8362 20.4687 55.9332C20.7347 56.0321 21.5121 55.6013 22.2937 55.1678C23.4151 54.5462 24.5425 53.9209 25.7166 54.1338C26.8738 54.343 27.7072 55.2937 28.5479 56.2527C29.1621 56.9531 29.7817 57.6599 30.1404 57.6599C30.4986 57.6599 31.1183 56.9531 31.7324 56.2527C32.5731 55.2937 33.407 54.343 34.5633 54.1338C35.7374 53.9209 36.8653 54.5462 37.9867 55.1678C38.7683 55.6013 39.5457 56.0321 39.8117 55.9332C40.0741 55.8362 40.3754 54.9944 40.6754 54.1562C41.1024 52.9637 41.5276 51.7754 42.5416 51.1821C43.5635 50.5847 44.8171 50.8035 46.0692 51.0223C46.9342 51.1734 47.7979 51.3245 47.996 51.1578C48.2001 50.9853 48.1965 50.1109 48.1923 49.2366C48.1864 47.9663 48.1809 46.6956 48.9377 45.8002C49.6922 44.9066 50.9447 44.6965 52.1992 44.4855C53.0679 44.3399 53.9384 44.1934 54.0737 43.9627C54.2086 43.7329 53.9141 42.9034 53.6183 42.0712C53.1926 40.8723 52.7656 39.6698 53.1803 38.5588C53.5889 37.4625 54.6833 36.8275 55.7827 36.1894C56.5675 35.7339 57.3563 35.2762 57.4114 34.975C57.4669 34.6692 56.9027 33.9606 56.3335 33.2455C55.5263 32.2311 54.7122 31.209 54.7122 30C54.7122 28.7915 55.5263 27.7689 56.3335 26.7549C56.9027 26.0394 57.4669 25.3308 57.4114 25.0255C57.3563 24.7243 56.5675 24.2661 55.7827 23.811C54.6833 23.1725 53.5889 22.5375 53.1803 21.4412C52.7656 20.3307 53.1926 19.1281 53.6183 17.9292C53.9141 17.097 54.2086 16.2671 54.0737 16.0378C53.9384 15.8066 53.0679 15.6606 52.1992 15.5145C50.9447 15.304 49.6922 15.0934 48.9377 14.2003C48.1809 13.3044 48.1864 12.0341 48.1923 10.7639C48.1965 9.88953 48.2001 9.01474 47.996 8.84262C47.7979 8.67599 46.9342 8.82706 46.0692 8.97766C44.8171 9.19647 43.5635 9.41528 42.5421 8.8179C41.5276 8.2251 41.1019 7.03629 40.6754 5.84381C40.3754 5.00565 40.0741 4.16428 39.8117 4.06677C39.5457 3.9679 38.7683 4.39865 37.9867 4.83215C36.8648 5.45425 35.7374 6.07956 34.5633 5.8667C33.4065 5.65704 32.5731 4.70627 31.7324 3.74771Z" fill="#FFED00"/>
</svg>
