<svg width="60" height="60" viewBox="0 0 60 60" fill="none" xmlns="http://www.w3.org/2000/svg">
<path d="M40.5469 0C39.8998 0 39.375 0.524766 39.375 1.17188V6.5625C39.375 7.20961 39.8998 7.73438 40.5469 7.73438C41.194 7.73438 41.7188 7.20961 41.7188 6.5625V1.17188C41.7188 0.524766 41.194 0 40.5469 0Z" fill="#FFED00"/>
<path d="M13.5938 36.5625C12.9469 36.5625 12.4219 37.0875 12.4219 37.7344C12.4219 38.3813 12.9469 38.9062 13.5938 38.9062C14.2406 38.9062 14.7656 38.3813 14.7656 37.7344C14.7656 37.0875 14.2406 36.5625 13.5938 36.5625Z" fill="#FFED00"/>
<path d="M56.9531 34.2188C56.9531 31.6341 54.8503 29.5312 52.2656 29.5312H43.5173C44.8717 26.0621 45.4199 21.9789 45.3142 18.3441C45.294 17.6504 45.2674 17.2493 45.2314 16.9968C45.1709 14.4647 43.0917 12.4219 40.5469 12.4219C37.9622 12.4219 35.8594 14.5247 35.8594 17.1094V18.2812C35.8594 25.6929 26.3421 29.8571 19.1597 31.6429C18.6166 30.4014 17.377 29.5312 15.9375 29.5312H4.21875C3.57164 29.5312 3.04688 30.056 3.04688 30.7031V58.8281C3.04688 59.4752 3.57164 60 4.21875 60H15.9375C17.3674 60 18.5999 59.1414 19.1486 57.913C19.7433 58.0656 20.2954 58.2097 20.805 58.3429C24.8966 59.4115 27.1505 60 32.632 60H45.2344C47.8191 60 49.9219 57.8972 49.9219 55.3125C49.9219 54.3488 49.6293 53.4523 49.1285 52.7065C50.9388 52.0733 52.2656 50.3436 52.2656 48.2812C52.2656 47.321 51.9802 46.4216 51.4809 45.6724C53.2833 45.0382 54.6094 43.3125 54.6094 41.25C54.6094 40.2862 54.3168 39.3898 53.816 38.644C55.6263 38.0108 56.9531 36.2811 56.9531 34.2188ZM17.1094 56.4844C17.1094 57.1305 16.5837 57.6562 15.9375 57.6562H5.39062V31.875H15.9375C16.5837 31.875 17.1094 32.4007 17.1094 33.0469V56.4844ZM52.2656 36.5625C49.7521 36.5625 49.1529 36.5625 46.4062 36.5625C45.7591 36.5625 45.2344 37.0873 45.2344 37.7344C45.2344 38.3815 45.7591 38.9062 46.4062 38.9062H49.9219C51.2142 38.9062 52.2656 39.9577 52.2656 41.25C52.2656 42.5445 51.2163 43.5938 49.9219 43.5938H44.0625C43.4154 43.5938 42.8906 44.1185 42.8906 44.7656C42.8906 45.4127 43.4154 45.9375 44.0625 45.9375H47.5781C48.8551 45.9375 49.9219 46.9576 49.9219 48.2812C49.9219 49.5757 48.8726 50.625 47.5781 50.625C45.0646 50.625 44.4654 50.625 41.7188 50.625C41.0716 50.625 40.5469 51.1498 40.5469 51.7969C40.5469 52.444 41.0716 52.9688 41.7188 52.9688H45.2344C46.5267 52.9688 47.5781 54.0202 47.5781 55.3125C47.5781 56.6048 46.5267 57.6562 45.2344 57.6562H32.632C27.4515 57.6562 25.4282 57.1278 21.3973 56.0752C20.8068 55.9209 20.1591 55.7518 19.4531 55.5718V33.9873C27.9338 31.9672 38.2031 27.0364 38.2031 18.2812V17.1094C38.2031 15.817 39.2545 14.7656 40.5469 14.7656C41.8369 14.7656 42.8882 15.8154 42.8906 17.1057V17.1094C42.8906 17.6187 43.5263 23.8691 40.9774 29.5312H37.0312C36.3841 29.5312 35.8594 30.056 35.8594 30.7031C35.8594 31.3502 36.3841 31.875 37.0312 31.875C37.8496 31.875 50.9299 31.875 52.2656 31.875C53.558 31.875 54.6094 32.9264 54.6094 34.2188C54.6094 35.5132 53.5601 36.5625 52.2656 36.5625Z" fill="#FFED00"/>
<path d="M13.5938 41.25C12.9466 41.25 12.4219 41.7748 12.4219 42.4219V51.7969C12.4219 52.444 12.9466 52.9688 13.5938 52.9688C14.2409 52.9688 14.7656 52.444 14.7656 51.7969V42.4219C14.7656 41.7748 14.2409 41.25 13.5938 41.25Z" fill="#FFED00"/>
<path d="M31.1719 14.7656H26.4844C25.8373 14.7656 25.3125 15.2904 25.3125 15.9375C25.3125 16.5846 25.8373 17.1094 26.4844 17.1094H31.1719C31.819 17.1094 32.3438 16.5846 32.3438 15.9375C32.3438 15.2904 31.819 14.7656 31.1719 14.7656Z" fill="#FFED00"/>
<path d="M54.6094 14.7656H49.9219C49.2748 14.7656 48.75 15.2904 48.75 15.9375C48.75 16.5846 49.2748 17.1094 49.9219 17.1094H54.6094C55.2565 17.1094 55.7812 16.5846 55.7812 15.9375C55.7812 15.2904 55.2565 14.7656 54.6094 14.7656Z" fill="#FFED00"/>
<path d="M51.3189 5.16539C50.8612 4.70789 50.1194 4.70789 49.6616 5.16539L46.3476 8.47933C45.89 8.93695 45.89 9.67898 46.3476 10.1367C46.8055 10.5943 47.5471 10.5942 48.005 10.1367L51.3189 6.82277C51.7766 6.36516 51.7766 5.62312 51.3189 5.16539Z" fill="#FFED00"/>
<path d="M34.7462 8.47933L31.4322 5.16539C30.9745 4.70789 30.2327 4.70789 29.7749 5.16539C29.3172 5.62301 29.3172 6.36504 29.7749 6.82277L33.0888 10.1367C33.5468 10.5943 34.2884 10.5942 34.7462 10.1367C35.2038 9.6791 35.2038 8.93707 34.7462 8.47933Z" fill="#FFED00"/>
</svg>
