<svg width="60" height="60" viewBox="0 0 60 60" fill="none" xmlns="http://www.w3.org/2000/svg">
<path d="M10.9753 27.756C10.7071 27.4877 10.3043 27.4063 9.95362 27.5527C9.60296 27.6974 9.375 28.0398 9.375 28.4188V49.6875C9.375 50.2056 9.79432 50.625 10.3125 50.625H31.5811C31.9601 50.625 32.3025 50.397 32.4472 50.0463C32.5928 49.6957 32.5122 49.2929 32.2439 49.0246L10.9753 27.756ZM11.25 30.682L16.875 36.307V48.75H11.25V30.682ZM18.75 48.75V38.182L29.3179 48.75H18.75Z" fill="#FFED00"/>
<path d="M51.2878 2.14966C51.1121 1.97388 50.874 1.875 50.625 1.875H17.8125C17.2943 1.875 16.875 2.29432 16.875 2.8125V23.0493L3.47534 9.64966C3.20709 9.38141 2.80426 9.30084 2.45362 9.44641C2.10296 9.59107 1.875 9.93347 1.875 10.3125V57.1875C1.875 57.7057 2.29432 58.125 2.8125 58.125H49.6875C50.0665 58.125 50.4089 57.897 50.5536 57.5464C50.6992 57.1957 50.6186 56.7929 50.3503 56.5247L44.4507 50.625H47.8125H57.1875C57.7057 50.625 58.125 50.2057 58.125 49.6875V16.875V9.375C58.125 9.12598 58.0261 8.88794 57.8503 8.71216L51.2878 2.14966ZM3.75 56.25V12.5757L8.04932 16.875L6.83716 18.0872L8.16284 19.4128L9.375 18.2007L10.8618 19.6875L9.64966 20.8997L10.9753 22.2253L12.1875 21.0132L13.6743 22.5L12.4622 23.7122L13.7878 25.0378L15 23.8257L16.4868 25.3125L15.2747 26.5247L16.6003 27.8503L17.8125 26.6382L19.2993 28.125L18.0872 29.3372L19.4128 30.6628L20.625 29.4507L22.1118 30.9375L20.8997 32.1497L22.2253 33.4753L23.4375 32.2632L24.9243 33.75L23.7122 34.9622L25.0378 36.2878L26.25 35.0757L27.7368 36.5625L26.5247 37.7747L27.8503 39.1003L29.0625 37.8882L30.5493 39.375L29.3372 40.5872L30.6628 41.9128L31.875 40.7007L33.3618 42.1875L32.1497 43.3997L33.4753 44.7253L34.6875 43.5132L36.1743 45L34.9622 46.2122L36.2878 47.5378L37.5 46.3257L38.9868 47.8125L37.7747 49.0247L39.1003 50.3503L40.3125 49.1382L41.7993 50.625L40.5872 51.8372L41.9128 53.1628L43.125 51.9507L47.4243 56.25H3.75ZM23.4375 14.0625H27.1875V33.3618L23.4375 29.6118V14.0625ZM24.017 12.1875L25.3125 9.59656L26.608 12.1875H24.017ZM35.6406 31.0437L37.2382 26.25H39.6368L41.2344 31.0437L39.7451 45.9194L36.8342 43.0085L35.6406 31.0437ZM39.375 20.625V16.3939L42.0255 20.6351L39.7817 24.375H37.0933L34.8496 20.6351L37.5 16.3939V20.625H39.375ZM41.4581 47.6324L43.1204 31.0309C43.1332 30.8991 43.1186 30.7663 43.0765 30.6409L41.338 25.4255L43.9288 21.1075C44.1101 20.8053 44.1064 20.4272 43.9197 20.1279L39.2322 12.6279C38.8898 12.0804 37.9852 12.0804 37.6428 12.6279L32.9553 20.1279C32.7685 20.4272 32.7649 20.8054 32.9461 21.1075L35.537 25.4255L33.7985 30.6409C33.7564 30.7663 33.7417 30.899 33.7546 31.0309L34.7408 40.9151L29.0625 35.2368V13.125C29.0625 12.9794 29.0286 12.8357 28.9636 12.7057L26.1511 7.08068C25.8325 6.44531 24.7925 6.44531 24.4739 7.08068L21.6614 12.7057C21.5964 12.8357 21.5625 12.9794 21.5625 13.125V27.7368L18.75 24.9243V3.75H50.2368L54.9243 8.4375H51.5625V6.5625H49.6875V9.375C49.6875 9.89318 50.1068 10.3125 50.625 10.3125H56.25V15.9375H47.8125C47.2943 15.9375 46.875 16.3568 46.875 16.875V48.75H42.5757L41.4581 47.6324ZM48.75 48.75V17.8125H56.25V20.625H54.375V22.5H56.25V25.3125H54.375V27.1875H56.25V30H54.375V31.875H56.25V34.6875H54.375V36.5625H56.25V39.375H54.375V41.25H56.25V44.0625H54.375V45.9375H56.25V48.75H48.75Z" fill="#FFED00"/>
<path d="M5.625 52.5H7.5V54.375H5.625V52.5Z" fill="#FFED00"/>
<path d="M9.375 52.5H11.25V54.375H9.375V52.5Z" fill="#FFED00"/>
<path d="M13.125 52.5H15V54.375H13.125V52.5Z" fill="#FFED00"/>
</svg>
