<svg width="60" height="60" viewBox="0 0 60 60" fill="none" xmlns="http://www.w3.org/2000/svg">
<path d="M42.8906 46.4062C42.2437 46.4062 41.7188 46.9312 41.7188 47.5781C41.7188 48.225 42.2437 48.75 42.8906 48.75C43.5375 48.75 44.0625 48.225 44.0625 47.5781C44.0625 46.9312 43.5375 46.4062 42.8906 46.4062Z" fill="#FFED00"/>
<path d="M45.776 42.6168L40.2061 40.7605L38.2065 36.7613C40.0079 34.9277 41.2587 32.5017 41.6804 29.9713L41.9298 28.4766H44.0625C46.001 28.4766 47.5781 26.8995 47.5781 24.9609V17.5781C47.5781 7.88555 39.6926 0 30 0C20.2826 0 12.4219 7.86293 12.4219 17.5781V24.9609C12.4219 26.4886 13.4017 27.7913 14.7656 28.275V29.6484C14.7656 31.587 16.3427 33.1641 18.2812 33.1641H19.3104C19.8184 34.2676 20.4759 35.2897 21.2761 36.2079C21.442 36.3987 21.6151 36.5836 21.7924 36.7635L19.7939 40.7605L14.2239 42.6169C7.7475 44.7764 3.04688 51.5943 3.04688 58.8281C3.04688 59.4754 3.57152 60 4.21875 60H55.7812C56.4284 60 56.9531 59.4754 56.9531 58.8281C56.9531 51.5943 52.2526 44.7764 45.776 42.6168ZM45.2344 24.9609C45.2344 25.6071 44.7087 26.1328 44.0625 26.1328H42.274C42.5719 23.8254 42.7704 21.37 42.8502 18.9516C42.8525 18.8834 42.8544 18.817 42.8565 18.75H45.2344V24.9609ZM15.9375 26.1328C15.2913 26.1328 14.7656 25.6071 14.7656 24.9609V18.75H17.1443C17.1482 18.8722 17.1523 18.995 17.1568 19.1187C17.157 19.1229 17.1572 19.127 17.1573 19.1312C17.1573 19.1316 17.1573 19.1319 17.1573 19.1323C17.2393 21.4845 17.4353 23.8761 17.7264 26.1327H15.9375V26.1328ZM18.2812 30.8203C17.6351 30.8203 17.1094 30.2946 17.1094 29.6484V28.4766H18.0701L18.3195 29.9718C18.367 30.2559 18.4255 30.5391 18.4931 30.8203H18.2812ZM17.1114 16.4062H14.8102C15.4037 8.55223 21.9582 2.34375 30 2.34375C38.006 2.34375 44.5894 8.55141 45.1897 16.4062H42.8888C42.8044 9.93434 37.5341 4.6875 31.0489 4.6875H28.9513C22.4662 4.6875 17.1956 9.93434 17.1114 16.4062ZM28.9512 7.03125H31.0488C36.2999 7.03125 40.5499 11.3263 40.5469 16.5715C40.5469 16.9403 40.5439 17.2614 40.5377 17.5535C40.5377 17.5573 40.5376 17.5611 40.5376 17.565L39.0718 17.3556C35.0898 16.787 31.33 14.9071 28.4849 12.062C28.265 11.8423 27.967 11.7188 27.6562 11.7188C24.5091 11.7188 21.4964 13.1527 19.5049 15.5752C19.9957 10.8034 24.0296 7.03125 28.9512 7.03125ZM20.9227 30.8203C20.336 28.8688 19.6648 23.1266 19.5164 19.4469L21.0936 17.3439C22.5422 15.4131 24.7958 14.2134 27.1931 14.0757C30.3475 17.0776 34.4282 19.06 38.7404 19.6757L40.4657 19.9222C40.3504 22.3697 40.1147 24.8257 39.7771 27.0845C39.777 27.0852 39.7768 27.086 39.7767 27.0868C39.6694 27.813 39.5848 28.2804 39.3687 29.5857C38.748 33.3082 35.9705 36.6744 32.3038 37.5912C30.7948 37.9679 29.205 37.9678 27.6968 37.5912C25.4073 37.0188 23.308 35.4347 21.9532 33.1641H24.3422C24.8259 34.528 26.1285 35.5078 27.6562 35.5078H30C31.9424 35.5078 33.5156 33.9347 33.5156 31.9922C33.5156 30.0537 31.9385 28.4766 30 28.4766H27.6562C26.0945 28.4766 24.8112 29.4853 24.3402 30.8203H20.9227ZM27.5577 39.9628C28.3615 40.1321 29.181 40.2188 30 40.2188C30.6411 40.2188 31.2824 40.1651 31.9164 40.061L29.8457 42.2509L27.5577 39.9628ZM28.2346 43.9546L24.5176 47.8853C23.4943 45.9266 22.6151 43.8881 21.8939 41.8013L23.2897 39.0096L28.2346 43.9546ZM36.5116 38.6126L38.1059 41.8011C37.3835 43.8915 36.504 45.9307 35.4818 47.887L31.5035 43.9087L36.5116 38.6126ZM26.4844 31.9922C26.4844 31.3452 27.0091 30.8203 27.6562 30.8203H30C30.6462 30.8203 31.1719 31.346 31.1719 31.9922C31.1719 32.6393 30.647 33.1641 30 33.1641H27.6562C27.0101 33.1641 26.4844 32.6384 26.4844 31.9922ZM5.4375 57.6562C5.90191 51.8509 9.76547 46.5742 14.9651 44.8403L19.898 43.1964C20.8017 45.6954 21.9213 48.1243 23.2335 50.4315C23.2357 50.4355 23.2378 50.4395 23.24 50.4434C23.24 50.4435 23.2402 50.4435 23.2402 50.4436C24.1989 52.1298 25.2779 53.7776 26.4478 55.3419L27.8895 57.6562H5.4375ZM30 56.6116L28.4107 54.0601C28.3929 54.0315 28.3739 54.0037 28.3538 53.9768C27.4048 52.7109 26.5195 51.3871 25.7133 50.032L29.8925 45.6124L34.2962 50.0161C33.4846 51.381 32.5963 52.7104 31.6465 53.9766C31.5891 54.0531 31.6705 53.9325 30 56.6116ZM32.1105 57.6562L33.5521 55.342C34.7271 53.7717 35.8139 52.1107 36.7822 50.4047C36.7881 50.3944 36.7936 50.3838 36.7995 50.3735C36.8002 50.3722 36.8009 50.3711 36.8016 50.3698C38.0971 48.0846 39.205 45.6768 40.102 43.1964L45.0348 44.8403C50.2345 46.5742 54.0981 51.8509 54.5625 57.6562H32.1105Z" fill="#FFED00"/>
<path d="M51.0406 52.9137C50.2574 51.3461 49.1103 49.9534 47.7231 48.8863C47.2101 48.4915 46.4744 48.5875 46.0798 49.1005C45.6851 49.6136 45.7811 50.3493 46.294 50.7439C47.4019 51.5962 48.3181 52.7087 48.9438 53.9611C49.2336 54.541 49.9379 54.7745 50.5158 54.4857C51.0947 54.1965 51.3297 53.4927 51.0406 52.9137Z" fill="#FFED00"/>
</svg>
