<svg width="60" height="60" viewBox="0 0 60 60" fill="none" xmlns="http://www.w3.org/2000/svg">
<path d="M56.2694 28.9617C52.234 28.9617 48.4883 26.9576 46.2496 23.599L45.4464 22.3942L44.6432 23.599C42.4044 26.9576 38.6587 28.9617 34.6234 28.9617H30.9655V44.4427C30.9655 48.1846 32.6501 51.7015 35.4652 54.0619H15.5192V50.2003H28.0693V32.8233H7.79612V40.5464H2.00378V1.93078H44.481V19.3078H46.4118V0H0.072998V41.9115L14.1542 55.9927H38.4328L45.4464 60L53.6039 55.3391C57.5041 53.111 59.9272 48.9347 59.9272 44.4427V28.9617H56.2694ZM13.5885 52.6968L3.36884 42.4772H13.5885V52.6968ZM9.72691 40.5464V34.7541H26.1385V48.2695H15.5192V40.5464H9.72691ZM57.9964 44.4427C57.9964 48.2444 55.946 51.7768 52.6462 53.6632L45.4464 57.7777L38.2465 53.6632C34.9468 51.7768 32.8963 48.2444 32.8963 44.4427V30.8925H34.6234C38.8518 30.8925 42.806 28.9955 45.4464 25.7586C48.0867 28.9955 52.0409 30.8925 56.2694 30.8925H57.9964V44.4427Z" fill="#FFED00"/>
<path d="M54.1349 38.6157V44.4428C54.1349 46.8621 52.8297 49.1105 50.73 50.3105L51.6876 51.9864C54.3878 50.4437 56.0657 47.5533 56.0657 44.4428V38.6157H54.1349Z" fill="#FFED00"/>
<path d="M5.86523 3.86157V9.65392H40.6193V3.86157H5.86523ZM38.6885 7.72313H7.79602V5.79235H38.6885V7.72313Z" fill="#FFED00"/>
<path d="M53.4522 33.1062L40.6193 45.9391L37.4403 42.7601L36.0752 44.1252L40.6193 48.6693L54.8173 34.4713L53.4522 33.1062Z" fill="#FFED00"/>
<path d="M24.2075 36.6848H11.6575V38.6156H24.2075V36.6848Z" fill="#FFED00"/>
<path d="M24.2077 40.5464H17.45V42.4772H24.2077V40.5464Z" fill="#FFED00"/>
<path d="M24.2077 44.408H17.45V46.3387H24.2077V44.408Z" fill="#FFED00"/>
<path d="M36.7577 13.5154H5.86523V15.4462H36.7577V13.5154Z" fill="#FFED00"/>
<path d="M36.7577 17.377H5.86523V19.3077H36.7577V17.377Z" fill="#FFED00"/>
<path d="M36.7577 21.2385H5.86523V23.1693H36.7577V21.2385Z" fill="#FFED00"/>
<path d="M24.2077 25.1001H5.86523V27.0309H24.2077V25.1001Z" fill="#FFED00"/>
<path d="M24.2077 28.9617H5.86523V30.8925H24.2077V28.9617Z" fill="#FFED00"/>
<path d="M40.6193 13.5154H38.6885V15.4462H40.6193V13.5154Z" fill="#FFED00"/>
<path d="M40.6193 17.377H38.6885V19.3077H40.6193V17.377Z" fill="#FFED00"/>
<path d="M40.6193 21.2385H38.6885V23.1693H40.6193V21.2385Z" fill="#FFED00"/>
<path d="M28.0692 25.1001H26.1384V27.0309H28.0692V25.1001Z" fill="#FFED00"/>
<path d="M28.0692 28.9617H26.1384V30.8925H28.0692V28.9617Z" fill="#FFED00"/>
</svg>
